<?xml version="1.0" encoding="UTF-8" standalone="no"?>
<!DOCTYPE svg PUBLIC "-//W3C//DTD SVG 1.1//EN" "http://www.w3.org/Graphics/SVG/1.1/DTD/svg11.dtd">
<svg xmlns="http://www.w3.org/2000/svg" version="1.1" viewBox="0.00 0.00 518.00 518.00">

<path fill="#ffa11b" d="
  M 93.77 122.28
  Q 93.91 128.16 93.90 134.00
  Q 93.75 209.75 93.93 285.50
  Q 94.12 363.34 93.69 394.25
  Q 93.67 395.41 92.47 398.11
  Q 83.11 390.32 76.91 384.59
  Q 65.63 374.17 56.55 361.14
  C 47.11 347.58 37.53 333.54 30.05 318.94
  Q 10.06 279.90 5.51 238.25
  Q 3.72 221.89 3.13 196.80
  Q 2.64 176.01 2.48 154.06
  C 2.36 136.67 1.90 119.37 2.09 101.74
  Q 2.24 88.52 2.33 74.96
  Q 2.43 60.60 3.35 55.07
  Q 5.59 41.51 16.60 31.12
  C 18.61 29.22 20.72 27.09 23.11 25.76
  Q 29.35 22.30 35.96 20.75
  Q 39.99 19.80 44.41 19.07
  Q 49.42 18.24 53.36 18.71
  C 64.05 19.98 76.10 24.43 82.58 32.89
  Q 93.29 46.90 93.37 64.92
  Q 93.49 93.61 93.77 122.28
  Z"
/>
<path fill="#ffa11b" d="
  M 422.44 399.92
  Q 421.94 385.22 421.95 362.25
  Q 421.96 247.22 421.98 132.18
  C 421.98 127.70 422.28 122.37 422.28 117.47
  Q 422.63 88.72 423.62 60.00
  Q 424.15 44.82 432.82 34.14
  Q 435.49 30.87 440.27 26.64
  Q 441.89 25.20 443.51 24.50
  C 444.81 23.93 445.83 23.00 447.08 22.52
  Q 453.84 19.88 461.93 18.89
  Q 467.66 18.18 473.37 19.22
  C 481.47 20.70 489.29 23.05 495.69 28.03
  Q 500.56 31.82 505.34 37.32
  Q 511.72 44.66 513.31 53.39
  Q 514.27 58.61 514.27 65.75
  Q 514.26 134.33 514.25 202.92
  C 514.25 209.35 513.96 215.96 513.78 222.43
  Q 513.65 226.72 513.40 230.15
  Q 510.64 267.80 496.48 302.60
  Q 493.62 309.62 487.87 320.19
  Q 483.44 328.31 477.74 336.73
  Q 466.89 352.75 454.63 367.99
  Q 446.42 378.20 435.44 388.50
  C 433.40 390.41 431.14 391.84 429.20 393.81
  Q 426.21 396.86 422.44 399.92
  Z"
/>
<path fill="#f05011" d="
  M 422.28 117.47
  C 422.28 122.37 421.98 127.70 421.98 132.18
  Q 421.96 247.22 421.95 362.25
  Q 421.94 385.22 422.44 399.92
  Q 417.12 412.81 411.35 422.06
  Q 401.63 437.62 386.67 454.01
  Q 379.95 461.37 372.46 467.50
  Q 353.71 482.83 332.70 493.10
  C 314.36 502.07 293.58 508.04 273.02 509.01
  Q 252.19 509.98 231.00 506.33
  Q 221.83 504.75 211.52 501.08
  Q 188.77 492.98 171.08 483.32
  Q 149.14 471.33 130.62 453.86
  Q 113.06 437.30 101.40 416.58
  Q 98.91 412.15 92.47 398.11
  Q 93.67 395.41 93.69 394.25
  Q 94.12 363.34 93.93 285.50
  Q 93.75 209.75 93.90 134.00
  Q 93.91 128.16 93.77 122.28
  Q 97.53 109.64 105.94 101.93
  Q 114.31 94.26 123.77 92.47
  Q 133.26 90.68 138.60 90.90
  Q 142.88 91.08 148.64 92.56
  Q 149.71 92.83 150.68 93.36
  C 157.97 97.37 163.64 101.46 168.97 108.26
  Q 171.59 111.61 174.51 119.33
  Q 176.38 124.26 176.90 131.35
  Q 177.85 144.39 177.95 157.60
  Q 178.60 247.98 178.25 322.13
  C 178.19 335.00 178.73 347.95 179.35 361.23
  C 180.06 376.32 183.94 390.88 193.42 403.34
  Q 198.64 410.19 205.22 415.98
  C 213.67 423.40 224.66 428.62 235.35 432.12
  Q 243.49 434.79 252.12 435.35
  Q 272.89 436.72 291.19 426.90
  C 297.46 423.54 304.27 418.87 309.36 413.98
  Q 330.21 393.94 334.60 366.79
  Q 335.81 359.28 335.79 346.89
  Q 335.67 246.70 336.14 135.83
  Q 336.19 125.11 339.86 114.54
  Q 341.77 109.02 345.44 104.06
  Q 349.31 98.82 353.25 95.68
  Q 359.04 91.07 368.13 89.54
  C 381.31 87.32 397.91 89.98 408.01 99.81
  Q 414.34 105.98 419.23 112.22
  C 420.51 113.85 421.23 115.69 422.28 117.47
  Z"
/>
<path fill="#ffa11b" d="
  M 290.13 116.78
  C 292.96 121.61 293.55 125.93 294.19 131.20
  Q 294.57 134.31 294.61 137.38
  C 295.25 187.72 295.13 237.85 294.93 287.00
  Q 294.81 315.19 293.64 345.03
  Q 293.11 358.55 291.25 369.35
  C 290.60 373.11 288.94 376.86 286.23 379.98
  C 279.91 387.24 272.35 392.14 262.57 393.40
  Q 252.99 394.63 242.91 392.20
  Q 241.43 391.84 238.27 390.54
  Q 236.07 389.63 234.01 388.16
  Q 224.44 381.32 221.61 370.00
  Q 220.15 364.15 219.66 355.36
  Q 219.25 347.84 219.25 340.38
  Q 219.23 236.91 219.26 134.24
  C 219.26 129.71 219.93 124.79 221.30 120.55
  Q 223.84 112.74 232.17 106.04
  Q 235.79 103.13 238.63 102.10
  Q 243.46 100.36 249.35 99.27
  Q 254.95 98.24 259.99 98.56
  C 267.79 99.07 276.22 102.72 282.33 107.47
  Q 286.65 110.83 290.13 116.78
  Z"
/>
</svg>
