<?xml version="1.0" encoding="UTF-8" standalone="no"?>
<!DOCTYPE svg PUBLIC "-//W3C//DTD SVG 1.1//EN" "http://www.w3.org/Graphics/SVG/1.1/DTD/svg11.dtd">
<svg xmlns="http://www.w3.org/2000/svg" version="1.1" viewBox="0.00 0.00 540.00 540.00">

<path fill="#ffa11b" d="
  M 102.38 130.64
  Q 102.52 132.55 102.42 134.72
  Q 102.29 137.78 102.29 138.79
  Q 102.31 271.52 102.27 404.25
  Q 102.27 408.12 101.44 414.36
  Q 89.90 404.42 86.45 401.29
  Q 73.46 389.56 63.15 374.71
  Q 50.78 356.90 40.39 339.20
  Q 36.89 333.24 33.79 326.46
  Q 30.67 319.65 27.92 313.03
  Q 21.90 298.53 16.74 278.44
  C 15.38 273.14 14.56 267.75 13.60 262.24
  Q 11.36 249.39 10.14 227.75
  Q 9.11 209.59 8.74 166.36
  C 8.67 158.88 8.41 151.40 8.49 143.93
  C 8.55 138.03 8.06 132.22 8.29 126.23
  Q 8.52 120.07 8.29 113.70
  C 8.08 108.15 8.47 102.55 8.47 97.08
  C 8.46 89.71 8.68 82.36 8.69 74.99
  Q 8.71 68.23 9.28 62.67
  C 9.99 55.65 13.88 46.94 18.85 41.27
  Q 22.74 36.83 26.62 33.61
  Q 29.41 31.29 33.90 29.23
  Q 37.66 27.50 41.98 26.40
  Q 50.92 24.12 57.20 23.92
  Q 63.36 23.72 72.89 26.75
  Q 84.98 30.59 91.78 39.79
  Q 101.82 53.38 102.01 70.50
  Q 102.33 100.34 102.38 130.64
  Z"
/>
<path fill="#ffa11b" d="
  M 439.96 415.82
  Q 439.11 369.96 439.74 337.75
  Q 439.89 330.14 439.80 325.49
  Q 439.67 318.31 439.67 318.29
  Q 439.50 221.89 439.65 125.67
  Q 439.72 106.81 440.29 88.33
  Q 440.36 86.13 440.38 83.98
  Q 440.47 75.30 440.78 67.61
  Q 441.73 43.79 460.17 30.76
  Q 464.96 27.38 471.02 25.93
  Q 480.03 23.78 485.74 23.89
  Q 492.18 24.01 503.40 27.49
  C 507.25 28.68 512.58 31.53 515.76 34.17
  Q 524.14 41.09 528.38 47.61
  C 532.30 53.63 534.05 61.00 534.04 68.36
  Q 533.94 144.56 534.03 220.45
  Q 534.04 230.87 533.34 240.89
  C 532.13 258.40 528.77 277.11 523.46 294.45
  Q 521.27 301.59 518.39 309.67
  Q 515.70 317.21 509.81 328.75
  Q 504.38 339.39 498.33 348.45
  Q 487.54 364.59 472.90 383.06
  Q 468.33 388.83 462.61 394.70
  Q 454.67 402.83 451.39 405.65
  Q 442.52 413.26 439.96 415.82
  Z"
/>
<path fill="#f05011" d="
  M 439.65 125.67
  Q 439.50 221.89 439.67 318.29
  Q 439.67 318.31 439.80 325.49
  Q 439.89 330.14 439.74 337.75
  Q 439.11 369.96 439.96 415.82
  Q 439.01 418.97 437.81 421.01
  C 433.35 428.62 430.07 436.80 425.14 443.89
  Q 410.53 464.92 395.12 479.55
  Q 382.32 491.71 361.89 504.00
  Q 335.16 520.07 305.99 525.70
  Q 296.05 527.62 276.89 528.22
  C 273.06 528.34 269.25 527.87 265.39 527.69
  C 251.29 527.03 236.45 524.64 222.98 519.74
  C 203.49 512.65 185.40 504.87 168.56 493.70
  Q 158.84 487.25 151.87 481.60
  C 137.07 469.60 123.55 455.21 113.40 438.60
  Q 110.27 433.49 107.15 426.77
  Q 104.23 420.50 101.44 414.36
  Q 102.27 408.12 102.27 404.25
  Q 102.31 271.52 102.29 138.79
  Q 102.29 137.78 102.42 134.72
  Q 102.52 132.55 102.38 130.64
  Q 104.19 123.34 109.35 116.03
  Q 118.42 103.21 133.69 99.76
  Q 136.11 99.22 144.07 98.35
  Q 148.14 97.91 150.68 98.50
  C 154.13 99.29 158.16 99.31 161.25 100.90
  Q 174.30 107.65 180.35 117.23
  Q 183.37 122.01 185.76 128.77
  Q 187.38 133.35 187.73 138.73
  Q 188.76 154.32 188.85 164.72
  Q 189.46 232.72 189.23 346.53
  C 189.22 355.82 189.85 365.31 190.10 374.73
  Q 190.26 380.78 191.69 388.89
  Q 193.07 396.70 195.27 402.51
  C 199.69 414.18 207.84 424.50 217.37 432.82
  C 225.76 440.15 236.80 445.26 247.48 448.82
  Q 255.87 451.63 262.75 452.08
  C 269.88 452.56 278.66 452.62 285.81 450.83
  Q 296.61 448.13 305.11 443.65
  Q 311.40 440.34 319.69 433.83
  C 336.60 420.56 348.49 398.67 350.26 377.60
  Q 350.92 369.68 350.92 362.63
  Q 350.87 234.54 351.23 145.45
  Q 351.25 139.61 352.18 133.45
  C 353.99 121.38 358.59 111.96 368.06 103.64
  C 379.64 93.44 403.34 94.77 416.27 101.18
  Q 421.28 103.67 426.38 108.71
  Q 431.69 113.95 435.09 118.16
  Q 437.08 120.63 439.65 125.67
  Z"
/>
<path fill="#ffa11b" d="
  M 249.95 110.06
  Q 250.30 109.24 251.21 109.48
  Q 251.74 109.61 251.92 109.11
  Q 252.20 108.35 253.01 108.50
  Q 253.53 108.60 253.90 108.21
  C 254.71 107.34 255.92 107.54 257.04 107.18
  Q 268.37 103.63 281.02 107.51
  Q 291.36 110.69 298.73 117.59
  Q 300.20 118.97 301.17 120.60
  C 302.05 122.10 303.23 123.08 304.10 124.64
  Q 306.81 129.42 307.44 133.71
  Q 308.66 141.92 308.76 151.51
  Q 308.91 164.40 308.91 164.49
  Q 309.54 190.00 309.53 217.58
  C 309.53 222.03 310.02 227.25 310.04 231.80
  Q 310.38 294.36 310.26 364.31
  C 310.24 374.65 307.31 384.03 301.85 392.96
  Q 300.18 395.68 297.63 398.13
  Q 294.70 400.93 291.23 403.37
  Q 283.86 408.54 273.90 409.41
  Q 264.39 410.25 255.78 408.12
  Q 248.87 406.42 243.87 401.81
  C 240.48 398.68 236.50 393.91 234.96 389.39
  C 234.34 387.57 233.58 385.72 233.28 383.82
  Q 231.33 371.41 231.31 362.96
  Q 231.17 256.07 231.27 144.00
  C 231.28 136.28 232.07 127.86 236.90 121.56
  Q 240.80 116.47 244.76 113.71
  Q 246.58 112.44 248.17 110.82
  Q 248.45 110.54 248.85 110.53
  L 249.27 110.52
  A 0.76 0.75 10.8 0 0 249.95 110.06
  Z"
/>
</svg>
