<?xml version="1.0" encoding="UTF-8" standalone="no"?>
<!DOCTYPE svg PUBLIC "-//W3C//DTD SVG 1.1//EN" "http://www.w3.org/Graphics/SVG/1.1/DTD/svg11.dtd">
<svg xmlns="http://www.w3.org/2000/svg" version="1.1" viewBox="0.00 0.00 409.00 68.00">
<path fill="#ffa11b" d="
  M 307.77 22.72
  Q 317.10 17.44 327.91 21.06
  C 340.45 25.27 343.04 40.53 340.30 51.41
  C 336.00 68.45 316.88 70.41 303.30 63.80
  C 300.39 62.39 298.98 60.30 299.00 56.99
  Q 299.11 29.47 299.01 3.54
  Q 299.00 0.63 301.90 0.88
  Q 303.45 1.02 303.88 1.06
  Q 307.01 1.34 307.01 4.48
  L 307.01 22.28
  Q 307.01 23.15 307.77 22.72
  Z
  M 314.16 60.34
  Q 330.80 62.57 332.95 46.92
  C 334.12 38.38 331.68 28.68 322.11 26.62
  Q 313.98 24.87 307.47 30.23
  Q 307.01 30.61 307.01 31.21
  L 307.01 57.22
  Q 307.01 57.73 307.46 57.99
  Q 310.82 59.89 314.16 60.34
  Z"
/>
<circle fill="#ffa11b" cx="403.31" cy="5.93" r="5.12"/>
<path fill="#f05011" d="
  M 27.68 41.73
  C 16.34 37.36 -1.85 35.86 1.21 18.29
  C 3.73 3.83 23.01 3.29 33.67 6.22
  Q 36.84 7.10 39.48 9.11
  Q 42.36 11.30 41.29 14.76
  Q 41.22 15.00 41.12 15.30
  Q 40.09 18.64 37.08 16.87
  Q 29.12 12.19 19.39 13.69
  Q 13.52 14.60 12.08 19.36
  C 10.58 24.31 14.46 27.41 18.69 28.66
  C 29.05 31.70 43.80 34.70 44.26 48.42
  C 44.97 69.15 18.35 69.93 5.59 64.09
  C 0.74 61.87 -2.17 56.00 4.08 52.91
  Q 4.52 52.69 4.90 53.01
  Q 13.40 60.08 24.48 58.58
  Q 32.22 57.54 33.26 50.73
  C 33.88 46.67 31.40 43.16 27.68 41.73
  Z"
/>
<path fill="#f05011" d="
  M 95.5176 45.4862
  A 21.39 21.39 0.0 0 1 74.2775 67.0250
  L 70.1376 67.0539
  A 21.39 21.39 0.0 0 1 48.5988 45.8137
  L 48.5624 40.5938
  A 21.39 21.39 0.0 0 1 69.8025 19.0550
  L 73.9424 19.0261
  A 21.39 21.39 0.0 0 1 95.4812 40.2663
  L 95.5176 45.4862
  Z
  M 84.74 47.33
  C 86.15 37.70 83.21 27.08 71.50 27.24
  C 65.35 27.32 60.99 31.47 59.65 37.35
  C 58.35 43.00 58.69 50.68 62.85 55.20
  C 67.22 59.95 75.87 59.97 80.40 55.98
  Q 83.93 52.88 84.74 47.33
  Z"
/>
<path fill="#f05011" d="
  M 112.76 30.75
  L 112.77 65.24
  A 0.70 0.69 -7.7 0 1 112.25 65.91
  C 109.18 66.68 102.48 67.37 102.46 62.37
  Q 102.42 44.99 102.48 28.60
  C 102.50 25.23 106.47 22.72 109.33 21.54
  Q 117.63 18.12 128.00 19.14
  Q 132.00 19.54 132.49 23.53
  Q 132.52 23.74 132.58 24.24
  Q 133.06 28.12 129.19 27.54
  Q 121.17 26.33 113.36 29.83
  Q 112.76 30.10 112.76 30.75
  Z"
/>
<path fill="#f05011" d="
  M 164.21 36.94
  Q 164.63 28.82 157.47 27.62
  C 150.94 26.52 145.58 28.03 139.55 30.66
  Q 139.00 30.90 138.58 30.47
  C 135.01 26.72 136.73 22.72 141.21 21.06
  Q 151.74 17.16 162.61 19.91
  C 172.73 22.46 174.75 29.30 174.56 38.72
  Q 174.36 48.61 174.51 57.75
  C 174.56 61.00 172.09 63.09 169.35 64.27
  Q 158.96 68.73 146.73 66.53
  C 137.79 64.91 131.79 58.33 134.28 48.86
  C 136.03 42.22 142.99 39.67 149.28 39.02
  Q 156.55 38.26 163.53 37.65
  Q 164.18 37.59 164.21 36.94
  Z
  M 144.12 51.48
  C 143.45 61.17 157.95 59.20 163.55 57.21
  Q 164.22 56.97 164.22 56.26
  L 164.23 45.28
  Q 164.23 44.75 163.70 44.80
  Q 157.73 45.36 151.94 45.97
  C 148.74 46.31 144.39 47.61 144.12 51.48
  Z"
/>
<path fill="#ffa11b" d="
  M 213.37 32.16
  Q 213.11 31.26 212.85 32.16
  Q 207.81 49.74 201.99 64.86
  Q 201.75 65.46 201.16 65.71
  C 198.03 67.03 193.46 66.98 191.97 63.18
  Q 191.29 61.44 190.69 59.62
  Q 184.98 42.19 180.86 23.55
  Q 180.07 19.98 183.72 19.73
  L 184.22 19.69
  Q 187.87 19.44 188.66 23.02
  Q 192.65 41.26 196.99 58.17
  Q 197.36 59.61 197.83 58.20
  L 208.71 25.37
  Q 208.87 24.91 209.31 24.71
  Q 211.57 23.70 214.41 24.02
  C 216.59 24.27 217.40 25.36 218.12 27.46
  Q 223.49 43.09 228.05 58.36
  Q 228.47 59.76 228.88 58.36
  Q 234.31 39.88 237.97 22.22
  Q 238.68 18.77 242.09 19.67
  Q 242.26 19.71 242.56 19.79
  Q 246.04 20.70 245.25 24.22
  Q 240.53 45.02 233.57 63.87
  C 233.24 64.74 232.77 65.69 231.79 65.96
  C 229.15 66.70 224.61 67.12 223.42 63.74
  Q 217.79 47.70 213.37 32.16
  Z"
/>
<path fill="#ffa11b" d="
  M 258.41 47.74
  Q 257.55 47.86 257.77 48.69
  Q 261.00 60.70 274.79 60.66
  Q 281.91 60.63 287.42 56.72
  Q 287.83 56.43 288.25 56.72
  C 292.95 60.01 288.35 64.33 284.93 65.40
  Q 270.13 70.06 258.82 63.10
  C 251.00 58.27 248.82 49.14 249.53 40.18
  C 250.28 30.62 256.04 22.52 265.48 20.37
  C 279.58 17.15 292.23 24.97 292.26 40.14
  C 292.26 42.43 290.46 43.40 288.45 43.68
  Q 274.03 45.67 258.41 47.74
  Z
  M 257.89 42.17
  L 284.62 38.50
  A 0.28 0.28 0.0 0 0 284.86 38.19
  L 284.81 37.80
  A 13.49 13.47 -7.8 0 0 269.62 26.29
  L 269.06 26.36
  A 13.49 13.47 -7.8 0 0 257.53 41.54
  L 257.58 41.93
  A 0.28 0.28 0.0 0 0 257.89 42.17
  Z"
/>
<path fill="#ffa11b" d="
  M 380.63 58.25
  A 0.43 0.42 78.4 0 0 380.88 57.86
  L 380.87 22.79
  Q 380.87 20.10 383.55 20.38
  Q 384.28 20.45 385.92 20.62
  Q 388.77 20.92 388.78 23.79
  Q 388.80 41.93 388.78 59.26
  Q 388.78 62.28 385.19 63.87
  Q 371.95 69.73 359.41 65.67
  Q 349.03 62.31 348.93 50.30
  Q 348.82 37.03 348.87 22.81
  Q 348.87 20.12 351.55 20.39
  Q 352.72 20.51 353.90 20.60
  Q 356.79 20.84 356.79 23.73
  Q 356.82 35.88 356.88 49.75
  C 356.94 62.83 372.41 62.16 380.63 58.25
  Z"
/>
<path fill="#ffa11b" d="
  M 405.75 66.31
  Q 403.77 66.55 402.11 66.26
  Q 399.37 65.79 399.37 63.02
  L 399.37 23.03
  Q 399.37 20.20 402.20 20.43
  Q 403.26 20.51 404.33 20.60
  Q 407.29 20.83 407.29 23.80
  L 407.29 64.58
  Q 407.29 66.13 405.75 66.31
  Z"
/>
</svg>
